# xmcd CD database file
#
# Track frame offsets:
#	150
#	21391
#	44120
#	62147
#	79574
#	96326
#	114025
#	133598
#	149531
#	168571
#	184793
#	202748
#	226634
#	239818
#	254158
#	270950
#	290815
#	312892
#	331629
#
# Disc length: 4646 seconds
#
# Revision: 1
# Processed by: cddbd v1.5.2PL0 Copyright (c) Steve Scherf et al.
# Submitted via: CDex 1.51
#
DISCID=15122413
DTITLE=Various Artist - ZM-PCP-14
DYEAR=1900
DGENRE=Blues
TTITLE0=Olly Murs - Army Of Two
TTITLE1=Robbie Williams - Different
TTITLE2=Haim - Don't Save Me
TTITLE3=PSY - Gangnam - Style
TTITLE4=Avicii Ft Nicky Romero - I Could Be The One
TTITLE5=Taylor Swift - I Knew You Were Trouble
TTITLE6=Stereophonics The - Indian Summer
TTITLE7=Michael Buble - It's A Beautiful Day
TTITLE8=Pink Ft Nate Ruess - Just Give Me A Reason
TTITLE9=Lawson - Learn To Love Again
TTITLE10=McFly - Love Is Easy
TTITLE11=Justin Timberlake - Mirrors
TTITLE12=One Direction - One Way Or Another(Teenage Kicks)
TTITLE13=Gabrielle Aplin - Please Don't Say You Love Me
TTITLE14=Bastille - Pompeii
TTITLE15=Rita Ora - Radioactive
TTITLE16=Will.i.am Ft Britney Spears - Scream And Shout
TTITLE17=Macklemore and Ryan - Thrift Shop
TTITLE18=Bruno Mars - When I Was Your Man
EXTD=
EXTT0=
EXTT1=
EXTT2=
EXTT3=
EXTT4=
EXTT5=
EXTT6=
EXTT7=
EXTT8=
EXTT9=
EXTT10=
EXTT11=
EXTT12=
EXTT13=
EXTT14=
EXTT15=
EXTT16=
EXTT17=
EXTT18=
PLAYORDER=
